#!OML:ASF F:\VICON\USERDATA\INSTALL\rory3\rory3.ASF
:FULLY-SPECIFIED
:DEGREES
473
root 0.192388 15.3163 -30.4516 -152.84 -6.00447 -179.575
lowerback -19.6078 2.1723 1.83533
upperback -10.9872 0.351355 0.962081
thorax -0.85004 -0.831287 0.0601629
lowerneck -7.63569 2.32674 -2.17216
upperneck 38.2549 -1.97104 2.02115
head 14.4605 -2.68512 0.487788
rclavicle 5.76476e-015 1.03368e-014
rhumerus -33.8459 -58.8458 5.30151
rradius 13.2239
rwrist 44.7338
rhand 5.13598 7.20781
rfingers 7.12502
rthumb 30.4997 -20.2878
lclavicle 5.76476e-015 1.03368e-014
lhumerus 14.8233 -24.5329 50.7961
lradius 19.6606
lwrist -33.9691
lhand 16.6146 19.0785
lfingers 7.12502
lthumb 41.3692 43.8764
rfemur -193.377 -190.759 -146.583
rtibia 29.1705
rfoot -38.6829 -30.2887
rtoes -0.295882
lfemur -70.7833 10.3945 -44.1269
ltibia 49.9089
lfoot -22.2181 24.9291
ltoes 23.2455
474
root 0.174211 15.2891 -30.5932 -152.459 -7.08644 -179.54
lowerback -20.5087 2.02813 2.36917
upperback -11.4059 -0.116302 0.8697
thorax -0.857445 -1.16798 -0.422731
lowerneck -7.34199 2.54909 -2.17163
upperneck 38.8253 -2.03507 2.3633
head 14.6762 -2.76 0.597629
rclavicle 5.46658e-015 -2.0276e-014
rhumerus -78.5338 -74.3336 54.6023
rradius 12.651
rwrist 69.0914
rhand 5.25067 9.25457
rfingers 7.12502
rthumb 30.609 -18.2207
lclavicle 5.46658e-015 -2.0276e-014
lhumerus 16.5577 -25.2848 48.8504
lradius 20.4112
lwrist -32.2287
lhand 16.254 19.1508
lfingers 7.12502
lthumb 41.0307 44.0574
rfemur -192.991 -189.391 -146.179
rtibia 28.7217
rfoot -37.0304 -29.882
rtoes 4.49486
lfemur -70.74 10.0841 -44.2391
ltibia 50.2261
lfoot -22.5898 24.3694
ltoes 22.912
475
root 0.150661 15.2821 -30.6545 -152.409 -8.12793 -179.514
lowerback -20.0883 1.8527 3.14142
upperback -11.7691 -0.515905 0.774879
thorax -1.47814 -1.44777 -1.01791
lowerneck -7.51898 2.75082 -1.69568
upperneck 39.052 -1.72269 1.99864
head 14.8138 -2.61675 0.396937
rclavicle -5.51627e-015 3.1408e-014
rhumerus -29.2788 -46.8606 0.811504
rradius 14.0749
rwrist 34.1256
rhand 5.45425 3.78727
rfingers 7.12502
rthumb 30.8031 -23.6515
lclavicle -5.51627e-015 3.1408e-014
lhumerus 18.534 -25.2758 47.0758
lradius 20.9588
lwrist -30.7958
lhand 15.4573 19.1684
lfingers 7.12502
lthumb 40.282 44.3088
rfemur -192.789 -187.954 -145.812
rtibia 28.606
rfoot -36.9798 -29.4748
rtoes 0.918544
lfemur -70.4529 9.53064 -44.0364
ltibia 50.3648
lfoot -22.5895 24.3315
ltoes 22.851
476
root 0.144709 15.2595 -30.7767 -152.061 -8.98556 -179.325
lowerback -19.7513 1.8346 3.60745
upperback -12.9189 -0.891973 0.712125
thorax -2.9363 -1.83974 -1.36171
lowerneck -6.25052 2.9588 -1.448
upperneck 39.2132 -1.77484 2.01873
head 14.6042 -2.72126 0.33686
rclavicle 2.55438e-014 -3.65764e-014
rhumerus -69.3448 -71.4259 47.6545
rradius 12.8638
rwrist 68.2785
rhand 5.52497 7.47929
rfingers 7.12502
rthumb 30.8706 -19.9468
lclavicle 2.55438e-014 -3.65764e-014
lhumerus 18.9815 -25.0689 46.4369
lradius 21.4849
lwrist -31.0322
lhand 14.9844 18.8677
lfingers 7.12502
lthumb 39.8369 44.1428
rfemur -192.456 -187.144 -145.296
rtibia 28.0667
rfoot -36.7408 -29.4436
rtoes -1.54744
lfemur -70.7479 9.2911 -43.8266
ltibia 51.0034
lfoot -22.6015 24.1244
ltoes 22.6039
477
root 0.174967 15.2472 -30.8535 -152.147 -8.66893 -180.075
lowerback -19.2334 1.52848 2.42874
upperback -13.2812 -1.15782 0.501519
thorax -3.60204 -1.94869 -0.936426
lowerneck -5.30745 3.10809 -0.962443
upperneck 38.8637 -1.64544 1.8881
head 14.2181 -2.64449 0.219813
rclavicle -6.4605e-016 6.75868e-015
rhumerus -38.7652 -57.1696 14.8162
rradius 13.3371
rwrist 49.3477
rhand 5.6531 4.06194
rfingers 7.12502
rthumb 30.9927 -23.3409
lclavicle -6.4605e-016 6.75868e-015
lhumerus 20.6064 -24.7873 44.8441
lradius 22.0488
lwrist -30.7264
lhand 15.026 18.8295
lfingers 7.12502
lthumb 39.8761 44.0928
rfemur -191.933 -188.394 -145.89
rtibia 28.0503
rfoot -36.6525 -30.5247
rtoes -2.27963
lfemur -70.5184 9.55239 -44.5857
ltibia 51.3516
lfoot -22.4217 24.4347
ltoes 21.6722
478
root 0.165138 15.241 -30.8881 -152.502 -9.10903 -180.496
lowerback -18.7428 1.13249 2.38113
upperback -13.2305 -1.59997 0.338179
thorax -3.81529 -2.15008 -1.13821
lowerneck -4.39844 3.17668 -0.511824
upperneck 38.1242 -1.47903 1.74256
head 13.6646 -2.51258 0.123173
rclavicle 3.46382e-014 5.96354e-015
rhumerus -42.9123 -60.5657 20.4762
rradius 13.0568
rwrist 53.5093
rhand 5.20156 3.59552
rfingers 7.12502
rthumb 30.5622 -23.8885
lclavicle 3.46382e-014 5.96354e-015
lhumerus 22.5323 -24.2351 42.9503
lradius 22.6482
lwrist -29.9544
lhand 14.3344 18.8359
lfingers 7.12502
lthumb 39.2248 44.2911
rfemur -191.372 -188.053 -146.08
rtibia 28.009
rfoot -36.4972 -30.5048
rtoes -2.8101
lfemur -69.9719 9.14953 -44.5706
ltibia 51.8899
lfoot -23.1049 24.3309
ltoes 22.0926
479
root 0.222256 15.2335 -31.0078 -152.279 -8.16388 -181.435
lowerback -19.7297 0.867374 0.366397
upperback -12.5417 -1.52645 0.239066
thorax -2.52308 -1.91504 -0.161202
lowerneck -6.01901 2.95152 -0.8144
upperneck 38.1148 -1.50251 1.85427
head 14.0163 -2.43406 0.229244
rclavicle 3.27995e-015 -7.55382e-015
rhumerus -37.9726 -55.2953 15.0652
rradius 13.5185
rwrist 45.5919
rhand 4.62422 1.59041
rfingers 7.12502
rthumb 30.0115 -25.9948
lclavicle 3.27995e-015 -7.55382e-015
lhumerus 25.5584 -23.1842 41.1992
lradius 23.1039
lwrist -28.6858
lhand 13.0873 18.9402
lfingers 7.12502
lthumb 38.0483 44.7263
rfemur -191.227 -190.391 -147.041
rtibia 28.2957
rfoot -37.4293 -31.391
rtoes -1.13688
lfemur -70.0923 9.7351 -45.5986
ltibia 52.2028
lfoot -23.2897 24.3723
ltoes 21.2353
480
root 0.188554 15.1852 -31.1068 -152.288 -9.75084 -180.598
lowerback -19.2221 0.924255 2.12748
upperback -13.9497 -2.11211 0.216788
thorax -4.3997 -2.52246 -1.17699
lowerneck -3.03663 3.41235 -0.299928
upperneck 38.1386 -1.53159 2.03365
head 13.3838 -2.58676 0.184095
rclavicle 3.3197e-014 8.34896e-015
rhumerus -32.9794 -44.9702 9.0411
rradius 14.1404
rwrist 36.6141
rhand 3.96023 0.0990015
rfingers 7.12502
rthumb 29.3777 -27.5992
lclavicle 3.3197e-014 8.34896e-015
lhumerus 25.317 -24.9537 39.8943
lradius 23.9301
lwrist -27.053
lhand 11.8909 19.3957
lfingers 7.12502
lthumb 36.9175 45.4814
rfemur -190.864 -188.526 -145.625
rtibia 28.1258
rfoot -36.8441 -31.071
rtoes -3.15914
lfemur -69.8413 8.81348 -44.0987
ltibia 53.0692
lfoot -25.2845 22.971
ltoes 24.4037
481
root 0.175428 15.1722 -31.1868 -151.915 -10.1354 -181.426
lowerback -19.8252 0.586064 1.60004
upperback -13.1753 -2.26984 0.0964304
thorax -3.22464 -2.45634 -1.10248
lowerneck -5.94876 3.07239 -1.13881
upperneck 38.3696 -1.5846 2.43955
head 14.1278 -2.49062 0.502361
rclavicle 3.66758e-014 1.23246e-014
rhumerus -43.3405 -57.8664 23.3182
rradius 13.42
rwrist 50.2662
rhand 4.02742 1.99585
rfingers 7.12502
rthumb 29.4419 -25.691
lclavicle 3.66758e-014 1.23246e-014
lhumerus 28.6825 -23.4031 38.3383
lradius 24.3689
lwrist -26.2325
lhand 11.1048 19.999
lfingers 7.12502
lthumb 36.1734 46.2728
rfemur -190.938 -187.597 -146.326
rtibia 28.3053
rfoot -36.7678 -30.6325
rtoes -2.69628
lfemur -69.5994 8.16499 -44.8138
ltibia 53.3148
lfoot -24.9134 23.5909
ltoes 21.8523
482
root 0.126131 15.1423 -31.2962 -151.653 -11.8252 -180.205
lowerback -20.7045 0.874532 3.89281
upperback -13.6885 -2.50251 0.153597
thorax -3.45075 -2.82965 -2.37653
lowerneck -4.81639 3.24117 -1.07887
upperneck 38.3134 -1.64083 2.75768
head 13.8555 -2.5473 0.606483
rclavicle 4.00551e-014 1.61016e-014
rhumerus -41.2196 -54.0979 21.6301
rradius 13.5177
rwrist 47.156
rhand 3.99716 1.37688
rfingers 7.12502
rthumb 29.413 -26.3151
lclavicle 4.00551e-014 1.61016e-014
lhumerus 29.9142 -23.917 37.138
lradius 25.0079
lwrist -25.7166
lhand 10.1126 20.1499
lfingers 7.12502
lthumb 35.2331 46.6512
rfemur -191.065 -185.072 -144.753
rtibia 28.2481
rfoot -36.3324 -29.1071
rtoes -2.53966
lfemur -69.8562 7.16515 -43.0282
ltibia 53.9533
lfoot -25.8077 22.9701
ltoes 22.2528
483
root 0.165535 15.1639 -31.3084 -151.966 -10.7512 -181.606
lowerback -19.0592 0.645248 1.98063
upperback -13.6678 -2.32568 -0.2637
thorax -4.19357 -2.5804 -1.64731
lowerneck -5.9759 3.12643 -1.20722
upperneck 38.7986 -1.80449 2.88314
head 14.3517 -2.59068 0.652742
rclavicle 9.74045e-015 -5.36719e-015
rhumerus -68.7767 -66.9357 53.6728
rradius 13.3456
rwrist 66.1834
rhand 4.09255 3.6514
rfingers 7.12502
rthumb 29.5041 -24.0245
lclavicle 9.74045e-015 -5.36719e-015
lhumerus 32.139 -23.0161 36.0374
lradius 25.3879
lwrist -25.4393
lhand 9.5141 20.0612
lfingers 7.12502
lthumb 34.6653 46.6948
rfemur -190.678 -187.307 -146.16
rtibia 28.6622
rfoot -36.8953 -30.1375
rtoes 0.737086
lfemur -68.967 7.38785 -44.1543
ltibia 53.6987
lfoot -26.0419 23.3439
ltoes 23.0764
484
root 0.184541 15.1708 -31.4033 -151.703 -10.3101 -182.353
lowerback -19.0214 0.641254 0.846846
upperback -14.4706 -2.45624 -0.57733
thorax -5.11104 -2.71164 -1.31265
lowerneck -4.08137 3.36138 -1.34243
upperneck 38.8382 -2.02739 3.43896
head 13.9633 -2.80117 0.857359
rclavicle -6.4605e-015 3.57812e-015
rhumerus -40.3236 -50.1548 21.7831
rradius 13.9088
rwrist 44.3965
rhand 4.01433 1.02305
rfingers 7.12502
rthumb 29.4294 -26.666
lclavicle -6.4605e-015 3.57812e-015
lhumerus 32.8087 -23.5699 35.1887
lradius 25.9429
lwrist -24.6664
lhand 9.4772 20.2673
lfingers 7.12502
lthumb 34.6303 46.9089
rfemur -190.495 -188.206 -146.915
rtibia 28.6461
rfoot -36.5953 -30.6637
rtoes 1.92037
lfemur -68.8011 7.58219 -44.9137
ltibia 53.7535
lfoot -25.9725 23.5248
ltoes 22.3828
485
root 0.211543 15.1693 -31.4845 -151.461 -9.82937 -182.728
lowerback -18.7306 0.679122 -0.0297357
upperback -14.8831 -2.42109 -0.644434
thorax -5.7128 -2.6864 -0.848777
lowerneck -3.68846 3.39838 -2.3285
upperneck 38.6785 -2.19276 4.43141
head 13.8164 -2.92192 1.41723
rclavicle 2.54444e-014 2.36554e-014
rhumerus -47.2464 -56.0493 31.5943
rradius 13.6336
rwrist 52.4169
rhand 3.94406 1.93343
rfingers 7.12502
rthumb 29.3623 -25.7674
lclavicle 2.54444e-014 2.36554e-014
lhumerus 34.2176 -23.1809 34.675
lradius 26.1478
lwrist -24.3576
lhand 9.29271 20.1983
lfingers 7.12502
lthumb 34.4552 46.8798
rfemur -190.574 -189.454 -147.263
rtibia 28.9472
rfoot -37.1643 -31.1347
rtoes 1.70483
lfemur -68.6518 7.92557 -45.3914
ltibia 53.5746
lfoot -26.409 23.18
ltoes 22.9521
486
root 0.153876 15.1792 -31.572 -151.074 -10.9824 -182.372
lowerback -20.0354 0.594612 1.22492
upperback -14.8312 -2.78104 -0.515482
thorax -5.03453 -2.99139 -1.52922
lowerneck -3.56929 3.49941 -2.19459
upperneck 38.7585 -1.99241 4.09754
head 13.8143 -2.87386 1.27859
rclavicle -1.07344e-014 -1.2921e-014
rhumerus -43.841 -53.2763 28.4069
rradius 13.752
rwrist 48.6403
rhand 4.0298 1.11871
rfingers 7.12502
rthumb 29.4441 -26.5678
lclavicle -1.07344e-014 -1.2921e-014
lhumerus 35.3546 -22.1538 34.206
lradius 26.419
lwrist -24.4978
lhand 9.1361 20.1256
lfingers 7.12502
lthumb 34.3065 46.8408
rfemur -190.815 -187.082 -146.793
rtibia 28.9542
rfoot -37.1724 -30.2592
rtoes -4.21225
lfemur -68.5164 7.19554 -44.7739
ltibia 53.5563
lfoot -26.5031 22.9541
ltoes 21.7928
